# Blender 3.5.0
# www.blender.org
mtllib box.mtl
o Cube
v 1.000000 -1.000000 -1.000000
v 1.000000 -1.000000 1.000000
v -1.000000 -1.000000 -1.000000
v -1.000000 -1.000000 1.000000
v 1.000000 0.000000 -1.000000
v -1.000000 0.000000 1.000000
v 1.000000 0.000000 1.000000
v -1.000000 0.000000 -1.000000
v -1.111639 1.029656 -0.874218
v -0.874218 1.029656 1.111639
v 0.874218 1.029656 -1.111639
v 1.111639 1.029656 0.874218
v -1.111639 0.029656 -0.874218
v 1.111639 0.029656 0.874218
v -0.874218 0.029656 1.111639
v 0.874218 0.029656 -1.111639
v -1.059447 -1.060329 -1.059447
v -1.059447 -1.060329 1.059447
v 1.059447 -1.060329 -1.059447
v 1.059447 -0.000881 -1.059447
v 1.059447 -0.000881 1.059447
v 1.059447 -1.060329 1.059447
v -1.059447 -0.000881 -1.059447
v -1.059447 -0.000881 1.059447
v 0.926188 1.089985 -1.177723
v 1.177723 1.089985 0.926188
v -1.177723 1.089985 -0.926188
v -1.177723 0.030538 -0.926188
v -0.926188 0.030538 1.177723
v -0.926188 1.089985 1.177723
v 0.926188 0.030538 -1.177723
v 1.177723 0.030538 0.926188
vn -0.0000 1.0000 -0.0000
vn -0.0000 -0.0000 1.0000
vn -1.0000 -0.0000 -0.0000
vn 1.0000 -0.0000 -0.0000
vn -0.0000 -0.0000 -1.0000
vn -0.0000 -1.0000 -0.0000
vn 0.1187 -0.0000 0.9929
vn 0.9929 -0.0000 -0.1187
vn -0.9929 -0.0000 0.1187
vn -0.1187 -0.0000 -0.9929
vn 0.0018 -0.9999 0.0147
vn -0.0147 -0.9999 0.0018
vn -0.0148 0.9999 -0.0000
vn -0.0000 0.9999 -0.0148
vn 0.0147 -0.9999 -0.0018
vn -0.0000 0.9999 0.0148
vn -0.0018 -0.9999 -0.0147
vn 0.0148 0.9999 -0.0000
vt 0.375000 0.500000
vt 0.375000 0.750000
vt 0.125000 0.500000
vt 0.375000 0.250000
vt 0.125000 0.750000
vt 0.375000 0.000000
vt 0.375000 1.000000
vt 0.500000 0.500000
vt 0.500000 0.000000
vt 0.500000 1.000000
vt 0.500000 0.750000
vt 0.500000 0.250000
vt 0.375000 0.500000
vt 0.375000 0.750000
vt 0.125000 0.500000
vt 0.375000 0.250000
vt 0.125000 0.750000
vt 0.375000 0.000000
vt 0.375000 1.000000
vt 0.500000 0.500000
vt 0.500000 1.000000
vt 0.500000 0.000000
vt 0.500000 0.750000
vt 0.500000 0.250000
vt 0.125000 0.500000
vt 0.375000 0.250000
vt 0.125000 0.750000
vt 0.375000 0.000000
vt 0.375000 1.000000
vt 0.375000 0.500000
vt 0.500000 0.500000
vt 0.500000 0.750000
vt 0.375000 0.750000
vt 0.500000 0.250000
vt 0.500000 0.000000
vt 0.500000 1.000000
vt 0.125000 0.500000
vt 0.375000 0.250000
vt 0.125000 0.750000
vt 0.375000 0.000000
vt 0.375000 1.000000
vt 0.375000 0.500000
vt 0.500000 0.500000
vt 0.500000 0.750000
vt 0.375000 0.750000
vt 0.500000 0.250000
vt 0.500000 1.000000
vt 0.500000 0.000000
s 0
usemtl Material
f 3/3/1 4/5/1 2/2/1 1/1/1
f 3/4/2 1/1/2 5/8/2 8/12/2
f 1/1/3 2/2/3 7/11/3 5/8/3
f 4/6/4 3/4/4 8/12/4 6/9/4
f 2/2/5 4/7/5 6/10/5 7/11/5
f 11/15/6 12/17/6 10/14/6 9/13/6
f 11/16/7 9/13/7 13/20/7 16/24/7
f 9/13/8 10/14/8 15/23/8 13/20/8
f 12/18/9 11/16/9 16/24/9 14/22/9
f 10/14/10 12/19/10 14/21/10 15/23/10
f 17/25/6 19/30/6 22/33/6 18/27/6
f 17/26/5 23/34/5 20/31/5 19/30/5
f 19/30/4 20/31/4 21/32/4 22/33/4
f 18/28/3 24/35/3 23/34/3 17/26/3
f 22/33/2 21/32/2 24/36/2 18/29/2
f 25/37/1 27/42/1 30/45/1 26/39/1
f 25/38/10 31/46/10 28/43/10 27/42/10
f 27/42/9 28/43/9 29/44/9 30/45/9
f 26/40/8 32/48/8 31/46/8 25/38/8
f 30/45/7 29/44/7 32/47/7 26/41/7
f 15/23/11 14/21/11 32/47/11 29/44/11
f 13/20/12 15/23/12 29/44/12 28/43/12
f 6/9/13 8/12/13 23/34/13 24/35/13
f 8/12/14 5/8/14 20/31/14 23/34/14
f 14/22/15 16/24/15 31/46/15 32/48/15
f 7/11/16 6/10/16 24/36/16 21/32/16
f 16/24/17 13/20/17 28/43/17 31/46/17
f 5/8/18 7/11/18 21/32/18 20/31/18
